<svg width="144" height="171" viewBox="0 0 144 171" fill="none" xmlns="http://www.w3.org/2000/svg">
<path d="M4.28339 59.9406L46.961 54.6847L60.2841 162.867L22.569 167.512C19.8283 167.85 17.3329 165.901 16.9953 163.161L4.28339 59.9406Z" fill="#3484E5"/>
<path d="M46.9609 54.6847L130.331 44.4173L143.043 147.638C143.381 150.378 141.432 152.874 138.692 153.211L60.284 162.867L46.9609 54.6847Z" fill="#57ACFF"/>
<mask id="mask0" mask-type="alpha" maskUnits="userSpaceOnUse" x="4" y="46" width="140" height="125">
<path d="M4.52777 61.9255L47.2053 56.6696L60.5284 164.852L22.8134 169.497C20.0727 169.835 17.5772 167.886 17.2397 165.146L4.52777 61.9255Z" fill="#57ACFF"/>
<path d="M47.2053 56.6696L130.575 46.4023L143.287 149.622C143.625 152.363 141.677 154.859 138.936 155.196L60.5284 164.852L47.2053 56.6696Z" fill="#57ACFF"/>
</mask>
<g mask="url(#mask0)">
<mask id="mask1" mask-type="alpha" maskUnits="userSpaceOnUse" x="7" y="103" width="139" height="69">
<path d="M10.8764 117.567C19.7551 111.939 29.3989 128.888 44.2865 127.054C59.1742 125.221 76.5721 106.957 96.9185 104.451C117.265 101.946 131.26 113.32 138.521 110.915C145.781 108.509 145.56 154.985 144.021 155.577C142.482 156.17 59.0169 166.214 17.4768 171.162C17.4768 171.162 1.99766 123.194 10.8764 117.567Z" fill="#C4C4C4" stroke="black"/>
</mask>
<g mask="url(#mask1)">
<path d="M0.588989 60.3955L46.963 54.6844L61.0195 168.822L19.608 173.922C16.8673 174.26 14.3718 172.311 14.0343 169.571L0.588989 60.3955Z" fill="#CDCBF0"/>
<path d="M46.9631 54.6843L137.554 43.5277L151 152.703C151.337 155.444 149.389 157.939 146.648 158.277L61.0196 168.822L46.9631 54.6843Z" fill="#E9E7FF"/>
</g>
</g>
<mask id="mask2" mask-type="alpha" maskUnits="userSpaceOnUse" x="3" y="46" width="140" height="125">
<path d="M3.53528 62.0477L46.2129 56.7918L59.536 164.975L21.8209 169.619C19.0802 169.957 16.5848 168.009 16.2472 165.268L3.53528 62.0477Z" fill="#57ACFF"/>
<path d="M46.2129 56.7918L129.583 46.5245L142.295 149.745C142.632 152.485 140.684 154.981 137.944 155.318L59.536 164.975L46.2129 56.7918Z" fill="#57ACFF"/>
</mask>
<g mask="url(#mask2)">
</g>
<path d="M69.0755 87.5837C69.1254 87.9888 69.0235 88.3044 68.77 88.5305C68.5403 88.7752 68.2656 88.9173 67.9458 88.9567C67.6259 88.9961 67.3142 88.9262 67.0108 88.7471C66.7313 88.5867 66.5666 88.304 66.5167 87.8988C66.0965 84.4871 65.7216 81.0914 65.392 77.7119C65.0597 74.311 64.8448 70.8956 64.7471 67.4658C64.7451 67.0981 64.8376 66.7944 65.0245 66.5549C65.2328 66.3128 65.4636 66.1654 65.7169 66.1125C65.9888 66.0357 66.2619 66.0562 66.5362 66.174C66.8291 66.2678 67.0606 66.4774 67.2306 66.8028C67.8067 67.9657 68.3522 69.1432 68.867 70.3353C69.3792 71.5061 69.882 72.6889 70.3755 73.8836C70.8903 75.0757 71.4051 76.2678 71.9199 77.4599C72.4534 78.6281 73.0176 79.7816 73.6124 80.9206C74.3772 77.9907 75.0341 75.0632 75.583 72.1383C76.1533 69.2107 76.5331 66.2308 76.7225 63.1986C76.7471 62.8708 76.8675 62.6179 77.0836 62.4398C77.2998 62.2616 77.5465 62.1555 77.8237 62.1213C78.1222 62.0846 78.398 62.1264 78.6509 62.2467C78.9038 62.3671 79.082 62.5833 79.1854 62.8953C79.4741 63.8338 79.6443 64.7761 79.6959 65.7222C79.7661 66.6444 79.8604 67.5852 79.9785 68.5448C80.1046 69.5683 80.2813 70.5639 80.5087 71.5317C80.7575 72.4968 80.9862 73.4752 81.1949 74.4669C81.6123 76.4502 81.9871 78.4389 82.3193 80.4328C82.6514 82.4266 82.9729 84.4218 83.2837 86.4184C83.3362 86.8448 83.2464 87.1698 83.0141 87.3932C82.7845 87.6379 82.5098 87.78 82.1899 87.8194C81.8701 87.8588 81.5584 87.7889 81.2549 87.6098C80.9541 87.4521 80.7774 87.1599 80.7249 86.7335C80.4354 84.7343 80.1139 82.7391 79.7605 80.7479C79.4283 78.754 79.0535 76.7654 78.6361 74.782C78.5488 74.4247 78.4602 74.0568 78.3703 73.6783C78.3017 73.2971 78.2238 72.9279 78.1365 72.5706C77.7571 74.5872 77.3204 76.5783 76.8265 78.5441C76.3539 80.5072 75.8494 82.4742 75.3128 84.4452C75.2377 84.7142 75.1054 84.9578 74.9158 85.176C74.7449 85.3702 74.5102 85.4857 74.2116 85.5225C73.9984 85.5487 73.7786 85.5217 73.5522 85.4413C73.3233 85.3396 73.1436 85.1994 73.0134 85.0206C71.9294 83.2492 70.9693 81.4301 70.1333 79.5632C69.2973 77.6963 68.4693 75.8068 67.6494 73.8946C67.8237 76.1893 68.0301 78.4801 68.2684 80.767C68.5255 83.0299 68.7945 85.3021 69.0755 87.5837ZM86.7355 85.7335C86.78 84.689 86.8485 83.6631 86.9409 82.656C87.0521 81.6249 87.0979 80.5911 87.0785 79.5544C87.0404 78.5417 86.9302 77.5595 86.7481 76.6079C86.5846 75.6322 86.5265 74.6328 86.5736 73.6096C86.5743 73.2632 86.7347 72.9837 87.0548 72.7711C87.3963 72.5559 87.7216 72.4725 88.0306 72.521C88.4062 72.583 88.6764 72.7554 88.8411 73.0382C89.0271 73.3183 89.1198 73.6316 89.1192 73.978C89.0943 74.4789 89.1134 74.9853 89.1764 75.4971C89.2608 76.0062 89.3451 76.5153 89.4294 77.0245C89.5502 78.0053 89.6071 78.9941 89.5999 79.9907C89.598 81.03 89.5509 82.0532 89.4584 83.0603C89.3873 84.0648 89.3282 85.0787 89.281 86.1019C89.2591 86.4509 89.088 86.7317 88.7679 86.9444C88.4477 87.157 88.1331 87.239 87.8241 87.1905C87.4484 87.1285 87.1676 86.9574 86.9816 86.6773C86.7956 86.3971 86.7135 86.0825 86.7355 85.7335ZM86.4588 70.8314C86.3043 70.8071 86.1471 70.7615 85.9874 70.6946C85.825 70.6064 85.7026 70.4916 85.6202 70.3502C85.5353 70.1875 85.4636 70.0448 85.4052 69.9221C85.3468 69.7994 85.3071 69.6527 85.2861 69.4822C85.2624 69.2903 85.2708 69.0944 85.3111 68.8946C85.3491 68.5003 85.4856 68.2021 85.7205 68C85.79 67.8615 85.8954 67.7511 86.0368 67.6688C86.253 67.4906 86.5104 67.3832 86.8089 67.3464C87.1048 67.2883 87.3805 67.3301 87.6361 67.4718C87.7532 67.544 87.8716 67.6268 87.9914 67.7203C88.1085 67.7925 88.2082 67.8992 88.2906 68.0406C88.3464 68.142 88.4035 68.254 88.4619 68.3767C88.5416 68.4968 88.5787 68.6221 88.5731 68.7527C88.5702 68.9045 88.5659 69.0458 88.5603 69.1763C88.5548 69.3069 88.5159 69.4307 88.4437 69.5479C88.3555 69.7103 88.2833 69.8274 88.2273 69.8992C88.1712 69.9711 88.075 70.0695 87.9389 70.1945C87.8641 70.2903 87.7441 70.37 87.5787 70.4337C87.1625 70.7447 86.7891 70.8773 86.4588 70.8314ZM92.8273 59.819C93.2111 59.7717 93.5254 59.8629 93.7702 60.0925C94.0149 60.3221 94.1796 60.6049 94.2643 60.9408C94.727 62.9403 95.0937 64.9515 95.3645 66.9746C95.6353 68.9977 95.8528 71.0274 96.017 73.0636C96.2025 75.0972 96.3454 77.136 96.4456 79.1801C96.5458 81.2242 96.6447 83.2576 96.7423 85.2804C96.7443 85.6482 96.6424 85.9637 96.4368 86.2272C96.255 86.5093 95.9829 86.6727 95.6204 86.7174C95.3006 86.7568 94.9863 86.6656 94.6776 86.4438C94.3715 86.2434 94.2068 85.9607 94.1835 85.5955C94.0859 83.5728 93.987 81.5393 93.8868 79.4952C93.8079 77.4485 93.6757 75.4084 93.4902 73.3748C93.326 71.3386 93.1085 69.3089 92.8377 67.2858C92.5669 65.2627 92.2002 63.2515 91.7375 61.252C91.6528 60.9161 91.7333 60.6031 91.979 60.3131C92.2247 60.0231 92.5075 59.8584 92.8273 59.819ZM100.471 77.3531C100.354 77.1077 100.311 76.8425 100.341 76.5574C99.8736 73.9957 99.3985 71.4566 98.9154 68.9401C98.4297 66.4023 98.1239 63.8316 97.9981 61.2278C97.9961 60.8601 98.0873 60.5458 98.2716 60.285C98.4747 60.0002 98.7574 59.8355 99.1199 59.7908C99.4611 59.7488 99.786 59.8387 100.095 60.0604C100.401 60.2608 100.555 60.5449 100.557 60.9127C100.673 63.2579 100.935 65.5635 101.344 67.8293C101.75 70.0738 102.171 72.349 102.606 74.6548C103.709 73.7615 104.813 72.8894 105.921 72.0387C107.05 71.1853 108.141 70.2933 109.196 69.3625C109.508 69.0859 109.821 68.9932 110.135 69.0844C110.468 69.1516 110.727 69.3147 110.91 69.5735C111.115 69.8297 111.217 70.131 111.216 70.4774C111.215 70.8238 111.059 71.1353 110.747 71.4119C109.692 72.3427 108.612 73.2334 107.504 74.0842C106.415 74.9109 105.319 75.7603 104.214 76.6324C105.761 77.416 107.298 78.2116 108.826 79.0191C110.354 79.8267 111.857 80.6915 113.334 81.6135C113.64 81.8139 113.806 82.1074 113.832 82.4938C113.856 82.8589 113.765 83.1732 113.559 83.4367C113.313 83.7267 113.018 83.882 112.675 83.9027C112.352 83.9208 112.039 83.8403 111.736 83.6612C110.376 82.8113 109.001 82.0174 107.611 81.2793C106.221 80.5413 104.81 79.8059 103.378 79.0732C103.499 79.8808 103.6 80.7018 103.681 81.536C103.784 82.3676 103.863 83.1912 103.921 84.0067C103.952 84.4358 103.841 84.7634 103.587 84.9894C103.357 85.2342 103.083 85.3763 102.763 85.4156C102.443 85.455 102.142 85.3839 101.86 85.2022C101.58 85.0418 101.425 84.747 101.394 84.3179C101.295 83.1612 101.163 82.0084 101 80.8596C100.856 79.6868 100.679 78.518 100.471 77.3531Z" fill="#EFEEFF"/>
<path d="M21.2364 13.5202C21.0339 11.8757 22.2028 10.3785 23.8473 10.176L100.766 0.703127C102.411 0.500609 103.908 1.66951 104.11 3.31394L105.822 17.209L22.9477 27.4152L21.2364 13.5202Z" fill="#57ACFF"/>
<path d="M22.9477 27.4152L46.9609 54.6846L4.2833 59.9405L22.9477 27.4152Z" fill="#1A58BB"/>
<g style="mix-blend-mode:lighten">
<path d="M5.40538 56.7797L44.6092 51.9516L46.9609 54.6846L4.28332 59.9405L5.40538 56.7797Z" fill="#5AAFFF"/>
</g>
<path d="M22.9477 27.4153L105.822 17.2091L130.331 44.4173L46.9609 54.6846L22.9477 27.4153Z" fill="#77D2FF"/>
</svg>
