<svg width="136" height="160" viewBox="0 0 136 160" fill="none" xmlns="http://www.w3.org/2000/svg">
<path d="M4.72229 47H47.7223V156H9.72229C6.96087 156 4.72229 153.761 4.72229 151V47Z" fill="#3484E5"/>
<path d="M47.7223 47H131.722V151C131.722 153.761 129.484 156 126.722 156H47.7223V47Z" fill="#57ACFF"/>
<mask id="mask0" mask-type="alpha" maskUnits="userSpaceOnUse" x="4" y="49" width="128" height="109">
<path d="M4.72229 49H47.7223V158H9.72229C6.96087 158 4.72229 155.761 4.72229 153V49Z" fill="#57ACFF"/>
<path d="M47.7223 49H131.722V153C131.722 155.761 129.484 158 126.722 158H47.7223V49Z" fill="#57ACFF"/>
</mask>
<g mask="url(#mask0)">
<mask id="mask1" mask-type="alpha" maskUnits="userSpaceOnUse" x="-1" y="102" width="137" height="58">
<path d="M4.22222 105C13.7222 100.5 21.2221 118.5 36.2222 118.5C51.2223 118.5 70.7221 102.5 91.2222 102.5C111.722 102.5 124.222 115.5 131.722 114C139.222 112.5 133.322 158.6 131.722 159C130.122 159.4 46.0556 159.167 4.22222 159C4.22222 159 -5.27778 109.5 4.22222 105Z" fill="#C4C4C4" stroke="black"/>
</mask>
<g mask="url(#mask1)">
<path d="M1 47H47.7244V162H6C3.23858 162 1 159.761 1 157V47Z" fill="#CDCBF0"/>
<path d="M47.7245 47H139V157C139 159.761 136.762 162 134 162H47.7245V47Z" fill="#E9E7FF"/>
</g>
</g>
<mask id="mask2" mask-type="alpha" maskUnits="userSpaceOnUse" x="3" y="49" width="128" height="109">
<path d="M3.72229 49H46.7223V158H8.72229C5.96087 158 3.72229 155.761 3.72229 153V49Z" fill="#57ACFF"/>
<path d="M46.7223 49H130.722V153C130.722 155.761 128.484 158 125.722 158H46.7223V49Z" fill="#57ACFF"/>
</mask>
<g mask="url(#mask2)">
</g>
<path d="M65.6498 82.3555C65.6498 82.7637 65.5101 83.0645 65.2308 83.2578C64.973 83.4727 64.683 83.5801 64.3607 83.5801C64.0385 83.5801 63.7377 83.4727 63.4584 83.2578C63.2006 83.0645 63.0717 82.7637 63.0717 82.3555C63.0717 78.918 63.1146 75.502 63.2006 72.1074C63.2865 68.6914 63.4906 65.2754 63.8129 61.8594C63.8558 61.4941 63.9847 61.2041 64.1996 60.9893C64.4359 60.7744 64.683 60.6562 64.9408 60.6348C65.2201 60.5918 65.4886 60.6455 65.7465 60.7959C66.0258 60.9248 66.2299 61.1611 66.3588 61.5049C66.7885 62.7295 67.1859 63.9648 67.5511 65.2109C67.9164 66.4355 68.2709 67.6709 68.6146 68.917C68.9799 70.1631 69.3451 71.4092 69.7103 72.6553C70.097 73.8799 70.516 75.0938 70.9672 76.2969C72.0844 73.4824 73.0941 70.6572 73.9965 67.8213C74.9203 64.9854 75.6615 62.0742 76.2201 59.0879C76.2845 58.7656 76.4349 58.5293 76.6713 58.3789C76.9076 58.2285 77.1654 58.1533 77.4447 58.1533C77.7455 58.1533 78.014 58.2285 78.2504 58.3789C78.4867 58.5293 78.6371 58.7656 78.7015 59.0879C78.8734 60.0547 78.9271 61.0107 78.8627 61.9561C78.8197 62.8799 78.7982 63.8252 78.7982 64.792C78.7982 65.8232 78.8519 66.833 78.9594 67.8213C79.0883 68.8096 79.1957 69.8086 79.2816 70.8184C79.4535 72.8379 79.5824 74.8574 79.6683 76.877C79.7543 78.8965 79.8295 80.916 79.8939 82.9355C79.8939 83.3652 79.765 83.6768 79.5072 83.8701C79.2494 84.085 78.9594 84.1924 78.6371 84.1924C78.3148 84.1924 78.014 84.085 77.7347 83.8701C77.4554 83.6768 77.3158 83.3652 77.3158 82.9355C77.2728 80.916 77.1976 78.8965 77.0902 76.877C77.0043 74.8574 76.8754 72.8379 76.7035 70.8184C76.6605 70.4531 76.6176 70.0771 76.5746 69.6904C76.5531 69.3037 76.5209 68.9277 76.4779 68.5625C75.8549 70.5176 75.1781 72.4404 74.4476 74.3311C73.7386 76.2217 72.9974 78.1123 72.224 80.0029C72.1166 80.2607 71.9554 80.4863 71.7406 80.6797C71.5472 80.8516 71.3002 80.9375 70.9994 80.9375C70.7845 80.9375 70.5697 80.8838 70.3549 80.7764C70.14 80.6475 69.9789 80.4863 69.8715 80.293C69.0121 78.4023 68.2816 76.4795 67.6801 74.5244C67.0785 72.5693 66.4877 70.5928 65.9076 68.5947C65.8002 70.8936 65.725 73.1924 65.682 75.4912C65.6605 77.7686 65.6498 80.0566 65.6498 82.3555ZM83.4035 82.6777C83.5754 81.6465 83.7688 80.6367 83.9836 79.6484C84.2199 78.6387 84.3918 77.6182 84.4992 76.5869C84.5852 75.5771 84.5959 74.5889 84.5315 73.6221C84.4885 72.6338 84.5529 71.6348 84.7248 70.625C84.7678 70.2812 84.9611 70.0234 85.3049 69.8516C85.6701 69.6797 86.0031 69.6367 86.3039 69.7227C86.6691 69.8301 86.9162 70.0342 87.0451 70.335C87.1955 70.6357 87.2492 70.958 87.2063 71.3018C87.1203 71.7959 87.0774 72.3008 87.0774 72.8164C87.0988 73.332 87.1203 73.8477 87.1418 74.3633C87.1418 75.3516 87.0774 76.3398 86.9484 77.3281C86.8195 78.3594 86.6477 79.3691 86.4328 80.3574C86.2395 81.3457 86.0568 82.3447 85.885 83.3545C85.8205 83.6982 85.6164 83.9561 85.2727 84.1279C84.9289 84.2998 84.6066 84.3428 84.3059 84.2568C83.9406 84.1494 83.6828 83.9453 83.5324 83.6445C83.382 83.3438 83.3391 83.0215 83.4035 82.6777ZM84.9504 67.8535C84.8 67.8105 84.6496 67.7461 84.4992 67.6602C84.3488 67.5527 84.2414 67.4238 84.177 67.2734C84.1125 67.1016 84.0588 66.9512 84.0158 66.8223C83.9729 66.6934 83.9514 66.543 83.9514 66.3711C83.9514 66.1777 83.9836 65.9844 84.0481 65.791C84.134 65.4043 84.3059 65.125 84.5637 64.9531C84.6496 64.8242 84.7678 64.7275 84.9182 64.6631C85.1545 64.5127 85.4231 64.4375 85.7238 64.4375C86.0246 64.416 86.2932 64.4912 86.5295 64.6631C86.6369 64.749 86.7443 64.8457 86.8518 64.9531C86.9592 65.0391 87.0451 65.1572 87.1096 65.3076C87.1525 65.415 87.1955 65.5332 87.2385 65.6621C87.3029 65.791 87.3244 65.9199 87.3029 66.0488C87.2815 66.1992 87.26 66.3389 87.2385 66.4678C87.217 66.5967 87.1633 66.7148 87.0774 66.8223C86.9699 66.9727 86.884 67.0801 86.8195 67.1445C86.7551 67.209 86.6477 67.2949 86.4973 67.4023C86.4113 67.4883 86.2824 67.5527 86.1106 67.5957C85.6594 67.8535 85.2727 67.9395 84.9504 67.8535ZM92.6172 57.7021C93.0039 57.7021 93.3047 57.8311 93.5196 58.0889C93.7344 58.3467 93.8633 58.6475 93.9063 58.9912C94.1211 61.0322 94.2393 63.0732 94.2608 65.1143C94.2823 67.1553 94.25 69.1963 94.1641 71.2373C94.0996 73.2783 93.9922 75.3193 93.8418 77.3604C93.6914 79.4014 93.5411 81.4316 93.3907 83.4512C93.3477 83.8164 93.208 84.1172 92.9717 84.3535C92.7569 84.6113 92.4668 84.7402 92.1016 84.7402C91.7793 84.7402 91.4786 84.6113 91.1993 84.3535C90.92 84.1172 90.7911 83.8164 90.8125 83.4512C90.9629 81.4316 91.1133 79.4014 91.2637 77.3604C91.4356 75.3193 91.5538 73.2783 91.6182 71.2373C91.7041 69.1963 91.7364 67.1553 91.7149 65.1143C91.6934 63.0732 91.5752 61.0322 91.3604 58.9912C91.3174 58.6475 91.4356 58.3467 91.7149 58.0889C91.9942 57.8311 92.295 57.7021 92.6172 57.7021ZM98.0604 76.0391C97.9745 75.7812 97.9637 75.5127 98.0282 75.2334C97.8778 72.6338 97.7167 70.0557 97.5448 67.499C97.3729 64.9209 97.3837 62.332 97.577 59.7324C97.62 59.3672 97.7489 59.0664 97.9637 58.8301C98.2001 58.5723 98.5009 58.4434 98.8661 58.4434C99.2098 58.4434 99.5214 58.5723 99.8007 58.8301C100.08 59.0664 100.198 59.3672 100.155 59.7324C99.9833 62.0742 99.9618 64.3945 100.091 66.6934C100.22 68.9707 100.359 71.2803 100.51 73.6221C101.713 72.8701 102.916 72.1396 104.119 71.4307C105.344 70.7217 106.536 69.9697 107.696 69.1748C108.04 68.9385 108.362 68.8848 108.663 69.0137C108.985 69.1211 109.222 69.3145 109.372 69.5938C109.544 69.873 109.608 70.1846 109.565 70.5283C109.522 70.8721 109.329 71.1621 108.985 71.3984C107.825 72.1934 106.643 72.9453 105.44 73.6543C104.259 74.3418 103.066 75.0508 101.863 75.7812C103.303 76.748 104.731 77.7256 106.149 78.7139C107.567 79.7021 108.953 80.7441 110.307 81.8398C110.586 82.0762 110.715 82.3877 110.693 82.7744C110.672 83.1396 110.543 83.4404 110.307 83.6768C110.027 83.9346 109.716 84.0527 109.372 84.0312C109.05 84.0098 108.749 83.8916 108.47 83.6768C107.224 82.667 105.956 81.7109 104.667 80.8086C103.378 79.9062 102.067 79.0039 100.735 78.1016C100.757 78.918 100.757 79.7451 100.735 80.583C100.735 81.4209 100.714 82.248 100.671 83.0645C100.649 83.4941 100.499 83.8057 100.22 83.999C99.9618 84.2139 99.6718 84.3213 99.3495 84.3213C99.0272 84.3213 98.7372 84.2139 98.4794 83.999C98.2216 83.8057 98.1034 83.4941 98.1249 83.0645C98.1678 81.9043 98.1786 80.7441 98.1571 79.584C98.1571 78.4023 98.1249 77.2207 98.0604 76.0391Z" fill="#EFEEFF"/>
<path d="M27.2222 3C27.2222 1.34315 28.5653 0 30.2222 0H107.722C109.379 0 110.722 1.34315 110.722 3V17H27.2222V3Z" fill="#57ACFF"/>
<path d="M27.2222 17L47.7222 47H4.72217L27.2222 17Z" fill="#1A58BB"/>
<g style="mix-blend-mode:lighten">
<path d="M6.22217 44H45.7222L47.7222 47H4.72217L6.22217 44Z" fill="#5AAFFF"/>
</g>
<path d="M27.2222 17H110.722L131.722 47H47.7222L27.2222 17Z" fill="#77D2FF"/>
</svg>
