<svg width="347" height="339" viewBox="0 0 347 339" fill="none" xmlns="http://www.w3.org/2000/svg">
<g opacity="0.25" clip-path="url(#clip0)">
<path d="M105.344 130.971L79.6156 140.158L73.5436 130.783L92.4497 111.061L105.344 130.971Z" fill="url(#paint0_linear)"/>
<path d="M52.3767 165.24L71.2828 145.519L65.2108 136.144L39.4822 145.331L52.3767 165.24Z" fill="url(#paint1_linear)"/>
<path d="M103.393 148.033L42.4868 187.48L48.2866 196.435L109.193 156.988L103.393 148.033Z" fill="#6986DA"/>
<path d="M103.394 148.032L43.5396 186.798L49.3393 195.753L109.194 156.987L103.394 148.032Z" fill="#3C5AB9"/>
<path d="M69.9662 180.099L54.3451 190.216C53.6472 190.668 52.7155 190.468 52.2631 189.77L50.0335 186.328C49.5812 185.629 49.7801 184.697 50.4781 184.245L66.0992 174.128C66.7971 173.676 67.7288 173.876 68.1812 174.574L70.4107 178.016C70.8631 178.715 70.6641 179.647 69.9662 180.099Z" fill="#ADEFFE"/>
<path d="M101.494 159.855L85.8732 169.973C85.1752 170.425 84.2435 170.225 83.7912 169.527L81.5616 166.084C81.1093 165.386 81.3082 164.454 82.0062 164.002L97.6273 153.885C98.3252 153.433 99.2569 153.632 99.7092 154.331L101.939 157.773C102.391 158.472 102.192 159.403 101.494 159.855Z" fill="#B0F2FF"/>
<path d="M79.6993 169.381L72.1567 174.266C71.8366 174.473 71.4098 174.382 71.2024 174.062L70.1804 172.484C69.973 172.163 70.0641 171.737 70.3842 171.529L77.9268 166.644C78.2468 166.437 78.6736 166.528 78.881 166.849L79.9031 168.427C80.1105 168.747 80.0183 169.174 79.6993 169.381Z" fill="#B0EFFF"/>
<path d="M80.799 173.259L75.4933 176.695C75.1733 176.902 74.7465 176.811 74.5391 176.491L73.5171 174.913C73.3097 174.593 73.4008 174.166 73.7208 173.959L79.0265 170.522C79.3465 170.315 79.7733 170.406 79.9807 170.727L81.0027 172.305C81.2101 172.625 81.119 173.052 80.799 173.259Z" fill="#AFEDFF"/>
<path d="M112.955 158.436L48.8169 199.977L108.106 291.52L172.245 249.979L112.955 158.436Z" fill="#6ECBE7"/>
<path d="M82.6766 186.875L59.3086 202.009L71.5529 220.915L94.9209 205.78L82.6766 186.875Z" fill="#3C5AB9"/>
<path d="M65.5913 211.71L88.9593 196.575" stroke="#6ECBE7" stroke-width="4" stroke-miterlimit="10"/>
<path d="M111.513 168.198L88.1453 183.333L100.39 202.238L123.758 187.103L111.513 168.198Z" fill="#3C5AB9"/>
<path d="M94.428 193.033L117.796 177.899" stroke="#6ECBE7" stroke-width="4" stroke-miterlimit="10"/>
<path d="M138.933 141.611L112.954 158.437L172.265 250.014L198.244 233.188L138.933 141.611Z" fill="#6C82E6"/>
<path d="M181.153 247.389L106.077 296.013L108.816 300.243L183.892 251.618L181.153 247.389Z" fill="#6ECBE7"/>
<path d="M202.656 233.461L181.153 247.389L183.892 251.618L205.395 237.691L202.656 233.461Z" fill="#6C82E6"/>
<path d="M77.0985 141.758L68.7705 147.152L70.704 150.137L79.032 144.743L77.0985 141.758Z" fill="#6CCCE7"/>
<path d="M82.0706 138.538L77.0986 141.758L79.0321 144.744L84.0041 141.523L82.0706 138.538Z" fill="#6E82E2"/>
<path d="M73.651 130.713L64.4524 136.671L70.5108 146.025L79.7093 140.067L73.651 130.713Z" fill="#AFF1FF"/>
<path d="M94.6147 147.009L44.7711 179.291L43.3214 177.053L64.472 154.152L93.1649 144.771L94.6147 147.009Z" fill="#6ACCE9"/>
<path d="M94.6148 147.009L120.454 130.306L119.021 128.093L114.377 131.033L93.165 144.771L94.6148 147.009Z" fill="#6887E1"/>
<path d="M119.022 128.093L93.2302 144.797L64.4722 154.152L89.7688 137.789" fill="#6E82E6"/>
<path d="M71.8593 131.873L63.474 137.34L62.3851 135.659L65.4888 130.915L70.8359 130.293L71.8593 131.873Z" fill="#6CCCE7"/>
<path d="M71.8046 131.909L74.9121 129.896L73.8888 128.316L70.7737 130.317L71.8046 131.909Z" fill="#6A86D6"/>
<path d="M73.8887 128.316L70.7547 130.33L65.5797 130.906C65.5574 130.909 65.5456 130.879 65.5656 130.866L68.4721 128.983" fill="#6E84DC"/>
<path d="M172.244 249.98L108.355 291.359L106.113 295.937C106.103 295.959 106.126 295.979 106.145 295.967L181.152 247.388L172.244 249.98Z" fill="#6ACDE7"/>
<path d="M123.695 160.308L121.209 161.918L127.17 171.123L129.657 169.513L123.695 160.308Z" fill="#3C5AB9"/>
<path d="M130.301 170.507L127.814 172.118L133.776 181.322L136.262 179.712L130.301 170.507Z" fill="#3C5AB9"/>
<path d="M126.679 158.376L124.192 159.986L130.154 169.191L132.64 167.58L126.679 158.376Z" fill="#3C5AB9"/>
<path d="M133.284 168.575L130.798 170.185L136.759 179.39L139.246 177.779L133.284 168.575Z" fill="#3C5AB9"/>
<path d="M129.662 156.444L127.176 158.054L133.137 167.259L135.624 165.648L129.662 156.444Z" fill="#3C5AB9"/>
<path d="M136.267 166.643L133.781 168.253L139.743 177.457L142.229 175.847L136.267 166.643Z" fill="#3C5AB9"/>
<path d="M134.136 153.546L131.649 155.156L137.611 164.361L140.097 162.75L134.136 153.546Z" fill="#3C5AB9"/>
<path d="M140.742 163.745L138.255 165.355L144.217 174.56L146.703 172.95L140.742 163.745Z" fill="#3C5AB9"/>
<path d="M137.119 151.614L134.633 153.224L140.594 162.429L143.081 160.818L137.119 151.614Z" fill="#3C5AB9"/>
<path d="M143.725 161.813L141.238 163.423L147.2 172.628L149.686 171.017L143.725 161.813Z" fill="#3C5AB9"/>
<path d="M140.103 149.682L137.616 151.292L143.578 160.497L146.064 158.886L140.103 149.682Z" fill="#3C5AB9"/>
<path d="M146.708 159.88L144.222 161.491L150.183 170.695L152.67 169.085L146.708 159.88Z" fill="#3C5AB9"/>
<path d="M110.607 149.363L106.132 152.261L103.393 148.033L42.4867 187.48L45.2253 191.709L42.8641 193.238L38.675 186.77L106.418 142.895L110.607 149.363Z" fill="#6CCBE9"/>
<path d="M98.3434 144.594L40.6687 181.948L42.2802 184.436L99.9548 147.082L98.3434 144.594Z" fill="#6CCBE9"/>
<path d="M130.283 127.439L106.418 142.895L110.607 149.363L134.472 133.906L130.283 127.439Z" fill="#6C82E6"/>
<path d="M136.958 132.296L113.59 147.431L118.424 154.894L141.792 139.759L136.958 132.296Z" fill="#6C82E6"/>
<path d="M124.446 127.688L98.3435 144.594L99.955 147.082L126.058 130.176L124.446 127.688Z" fill="#6C82E6"/>
<path d="M53.5404 196.917L48.8169 199.977L108.106 291.52L112.83 288.46L53.5404 196.917Z" fill="#6ECBE7"/>
<path d="M112.954 158.437L109.225 160.852L168.515 252.395L172.244 249.98L112.954 158.437Z" fill="#6ACCE9"/>
<path d="M109.227 160.851L53.5405 196.917L56.1181 200.897L111.804 164.831L109.227 160.851Z" fill="#6ECBE7"/>
<path d="M48.5395 199.61L118.26 154.604L119.123 155.937L49.4339 201.072" fill="#6C82E6"/>
<path d="M124.888 252.049L101.52 267.184L113.764 286.089L137.132 270.955L124.888 252.049Z" fill="#6986DA"/>
<path d="M110.71 230.159L87.342 245.293L99.5863 264.199L122.954 249.064L110.71 230.159Z" fill="#6986DA"/>
<path d="M118.424 154.894L44.7144 202.633L39.8806 195.17L45.2252 191.708L48.2865 196.435L109.148 156.917L106.132 152.261L113.59 147.431L118.424 154.894Z" fill="#69CBE5"/>
<path d="M96.0487 207.521L72.6807 222.656L84.925 241.561L108.293 226.426L96.0487 207.521Z" fill="#6986DA"/>
<path d="M153.725 233.373L130.357 248.507L142.601 267.413L165.969 252.278L153.725 233.373Z" fill="#6986DA"/>
<path d="M139.547 211.482L116.179 226.617L128.423 245.522L151.791 230.387L139.547 211.482Z" fill="#6986DA"/>
<path d="M124.885 188.844L101.517 203.979L113.762 222.884L137.13 207.75L124.885 188.844Z" fill="#6986DA"/>
<path d="M124.888 252.049L102.573 266.502L114.817 285.407L137.132 270.954L124.888 252.049Z" fill="#B0F2FF"/>
<path d="M110.71 230.158L88.3948 244.611L100.639 263.517L122.954 249.064L110.71 230.158Z" fill="#B0F2FF"/>
<path d="M96.0487 207.521L73.7334 221.974L85.9777 240.879L108.293 226.426L96.0487 207.521Z" fill="#B0F2FF"/>
<path d="M153.732 233.368L131.409 247.826L143.654 266.731L165.976 252.273L153.732 233.368Z" fill="#B0F2FF"/>
<path d="M139.554 211.477L117.232 225.935L129.476 244.84L151.799 230.382L139.554 211.477Z" fill="#B0F2FF"/>
<path d="M124.893 188.84L102.57 203.297L114.814 222.203L137.137 207.745L124.893 188.84Z" fill="#B0F2FF"/>
<path d="M89.9375 213.068L77.5071 221.119L87.9796 237.289L100.41 229.238L89.9375 213.068Z" fill="#6986DA"/>
<path d="M89.5165 213.341L77.0862 221.392L87.5587 237.562L99.9891 229.511L89.5165 213.341Z" fill="white"/>
<path d="M172.278 250.005L198.28 233.165L202.66 233.468L181.08 247.445L172.278 250.005Z" fill="#6C82E6"/>
<path d="M49.7734 200.904L108.379 291.391" stroke="#D7F9FF" stroke-width="4" stroke-miterlimit="10"/>
<path d="M109.815 161.868L168.488 252.46" stroke="#D7F9FF" stroke-width="4" stroke-miterlimit="10"/>
<path d="M109.053 161.614L168.067 252.733" stroke="#6986DA" stroke-width="4" stroke-miterlimit="10"/>
<path d="M83.9707 182.644L140.802 270.391" stroke="#6986DA" stroke-width="4" stroke-miterlimit="10"/>
<path d="M53.9961 197.272L113.011 288.391" stroke="#6986DA" stroke-width="4" stroke-miterlimit="10"/>
<path d="M111.496 165.041L56.2817 200.801" stroke="#6986DA" stroke-width="4" stroke-miterlimit="10"/>
<path d="M83.8225 183.338L140.381 270.664" stroke="#D7F9FF" stroke-width="4" stroke-miterlimit="10"/>
<path d="M181.954 248.448L106.843 297.095" stroke="#D7F9FF" stroke-width="4" stroke-miterlimit="10"/>
<path d="M183.114 250.239L108.003 298.886" stroke="#D7F9FF" stroke-width="4" stroke-miterlimit="10"/>
<path d="M182.159 248.765L107.048 297.412" stroke="#6986DA" stroke-width="4" stroke-miterlimit="10"/>
<path d="M183.318 250.555L108.208 299.202" stroke="#6986DA" stroke-width="4" stroke-miterlimit="10"/>
<path d="M75.3657 191.506L87.6462 210.467" stroke="#D7F9FF" stroke-width="4" stroke-miterlimit="10"/>
<path d="M67.1545 196.825L79.435 215.786" stroke="#D7F9FF" stroke-width="4" stroke-miterlimit="10"/>
<path d="M104.21 172.825L116.49 191.786" stroke="#D7F9FF" stroke-width="4" stroke-miterlimit="10"/>
<path d="M95.9988 178.143L108.279 197.104" stroke="#D7F9FF" stroke-width="4" stroke-miterlimit="10"/>
<path d="M75.7869 191.234L88.0674 210.195" stroke="#6986DA" stroke-width="4" stroke-miterlimit="10"/>
<path d="M67.5757 196.552L79.8562 215.513" stroke="#6986DA" stroke-width="4" stroke-miterlimit="10"/>
<path d="M104.631 172.552L116.912 191.513" stroke="#6986DA" stroke-width="4" stroke-miterlimit="10"/>
<path d="M96.4199 177.87L108.7 196.831" stroke="#6986DA" stroke-width="4" stroke-miterlimit="10"/>
</g>
<g opacity="0.3" clip-path="url(#clip1)">
<path d="M153.095 107.608L126.646 114.45L121.44 104.568L142.039 86.6223L153.095 107.608Z" fill="url(#paint2_linear)"/>
<path d="M97.2671 136.988L117.866 119.042L112.66 109.16L86.2107 116.002L97.2671 136.988Z" fill="url(#paint3_linear)"/>
<path d="M149.622 124.427L85.4219 158.251L90.3949 167.69L154.595 133.866L149.622 124.427Z" fill="#6986DA"/>
<path d="M149.623 124.426L86.5315 157.666L91.5046 167.105L154.596 133.865L149.623 124.426Z" fill="#3C5AB9"/>
<path d="M113.453 153.364L96.9869 162.039C96.2512 162.427 95.3412 162.145 94.9534 161.408L93.0416 157.78C92.6537 157.044 92.9355 156.133 93.6712 155.746L110.137 147.071C110.873 146.683 111.783 146.965 112.17 147.702L114.082 151.33C114.47 152.066 114.188 152.977 113.453 153.364Z" fill="#ADEFFE"/>
<path d="M146.67 136.031L130.204 144.706C129.468 145.094 128.558 144.811 128.17 144.075L126.259 140.447C125.871 139.711 126.153 138.8 126.888 138.413L143.354 129.738C144.09 129.35 145 129.632 145.387 130.368L147.299 133.997C147.687 134.733 147.405 135.643 146.67 136.031Z" fill="#B0F2FF"/>
<path d="M124.108 143.563L116.158 147.752C115.82 147.929 115.404 147.8 115.226 147.462L114.349 145.799C114.171 145.462 114.301 145.045 114.638 144.867L122.588 140.678C122.926 140.5 123.343 140.63 123.52 140.967L124.397 142.631C124.575 142.968 124.444 143.386 124.108 143.563Z" fill="#B0EFFF"/>
<path d="M124.855 147.524L119.263 150.47C118.926 150.648 118.509 150.519 118.331 150.181L117.455 148.518C117.277 148.18 117.406 147.763 117.743 147.586L123.336 144.639C123.673 144.461 124.09 144.591 124.268 144.928L125.144 146.592C125.322 146.929 125.193 147.346 124.855 147.524Z" fill="#AFEDFF"/>
<path d="M158.212 135.646L90.6055 171.265L141.444 267.758L209.05 232.139L158.212 135.646Z" fill="#6ECBE7"/>
<path d="M125.504 161.253L100.872 174.23L111.371 194.158L136.003 181.181L125.504 161.253Z" fill="#3C5AB9"/>
<path d="M106.26 184.456L130.891 171.478" stroke="#6ECBE7" stroke-width="4" stroke-miterlimit="10"/>
<path d="M155.9 145.239L131.268 158.216L141.767 178.143L166.399 165.166L155.9 145.239Z" fill="#3C5AB9"/>
<path d="M136.656 168.441L161.287 155.464" stroke="#6ECBE7" stroke-width="4" stroke-miterlimit="10"/>
<path d="M185.594 121.219L158.211 135.646L209.067 232.174L236.451 217.747L185.594 121.219Z" fill="#6C82E6"/>
<path d="M218.154 230.358L139.019 272.051L141.368 276.509L220.503 234.816L218.154 230.358Z" fill="#6ECBE7"/>
<path d="M240.82 218.415L218.154 230.357L220.503 234.815L243.169 222.874L240.82 218.415Z" fill="#6C82E6"/>
<path d="M123.996 115.818L115.218 120.443L116.876 123.59L125.654 118.965L123.996 115.818Z" fill="#6CCCE7"/>
<path d="M129.237 113.057L123.996 115.818L125.654 118.965L130.895 116.203L129.237 113.057Z" fill="#6E82E2"/>
<path d="M121.553 104.508L111.857 109.617L117.052 119.477L126.748 114.368L121.553 104.508Z" fill="#AFF1FF"/>
<path d="M140.97 122.62L88.4318 150.3L87.1887 147.941L110.308 127.03L139.727 120.26L140.97 122.62Z" fill="#6ACCE9"/>
<path d="M140.97 122.62L168.204 108.301L166.976 105.97L162.086 108.48L139.727 120.26L140.97 122.62Z" fill="#6887E1"/>
<path d="M166.976 105.969L139.79 120.292L110.308 127.03L136.971 113.002" fill="#6E82E6"/>
<path d="M119.665 105.503L110.823 110.196L109.889 108.424L113.406 103.978L118.787 103.838L119.665 105.503Z" fill="#6CCCE7"/>
<path d="M119.607 105.534L122.882 103.808L122.005 102.142L118.723 103.856L119.607 105.534Z" fill="#6A86D6"/>
<path d="M122.005 102.142L118.703 103.866L113.497 103.976C113.475 103.977 113.465 103.946 113.487 103.935L116.55 102.321" fill="#6E84DC"/>
<path d="M209.049 232.139L141.705 267.619L139.062 271.979C139.05 271.999 139.071 272.022 139.091 272.011L218.153 230.357L209.049 232.139Z" fill="#6ACDE7"/>
<path d="M168.741 138.474L166.12 139.854L171.231 149.557L173.852 148.176L168.741 138.474Z" fill="#3C5AB9"/>
<path d="M174.404 149.224L171.783 150.605L176.895 160.307L179.516 158.926L174.404 149.224Z" fill="#3C5AB9"/>
<path d="M171.885 136.817L169.264 138.198L174.376 147.9L176.997 146.519L171.885 136.817Z" fill="#3C5AB9"/>
<path d="M177.549 147.567L174.928 148.948L180.04 158.65L182.661 157.27L177.549 147.567Z" fill="#3C5AB9"/>
<path d="M175.03 135.16L172.409 136.541L177.521 146.243L180.142 144.862L175.03 135.16Z" fill="#3C5AB9"/>
<path d="M180.694 145.91L178.073 147.291L183.185 156.993L185.806 155.612L180.694 145.91Z" fill="#3C5AB9"/>
<path d="M179.746 132.675L177.125 134.056L182.237 143.758L184.858 142.378L179.746 132.675Z" fill="#3C5AB9"/>
<path d="M185.41 143.426L182.789 144.807L187.901 154.509L190.521 153.128L185.41 143.426Z" fill="#3C5AB9"/>
<path d="M182.89 131.019L180.27 132.399L185.381 142.102L188.002 140.721L182.89 131.019Z" fill="#3C5AB9"/>
<path d="M188.555 141.769L185.934 143.15L191.045 152.852L193.666 151.471L188.555 141.769Z" fill="#3C5AB9"/>
<path d="M186.035 129.362L183.414 130.743L188.526 140.445L191.147 139.064L186.035 129.362Z" fill="#3C5AB9"/>
<path d="M191.699 140.112L189.078 141.493L194.19 151.195L196.811 149.815L191.699 140.112Z" fill="#3C5AB9"/>
<path d="M156.687 126.399L151.97 128.884L149.622 124.427L85.4221 158.251L87.7702 162.708L85.2813 164.019L81.6895 157.202L153.095 119.581L156.687 126.399Z" fill="#6CCBE9"/>
<path d="M144.901 120.549L84.1074 152.578L85.4892 155.201L146.282 123.171L144.901 120.549Z" fill="#6CCBE9"/>
<path d="M178.25 106.328L153.095 119.581L156.687 126.399L181.842 113.145L178.25 106.328Z" fill="#6C82E6"/>
<path d="M184.463 111.764L159.832 124.742L163.976 132.609L188.608 119.631L184.463 111.764Z" fill="#6C82E6"/>
<path d="M172.415 106.053L144.901 120.549L146.282 123.171L173.797 108.675L172.415 106.053Z" fill="#6C82E6"/>
<path d="M95.5844 168.641L90.6055 171.265L141.444 267.758L146.422 265.134L95.5844 168.641Z" fill="#6ECBE7"/>
<path d="M158.211 135.646L154.28 137.717L205.118 234.21L209.049 232.139L158.211 135.646Z" fill="#6ACCE9"/>
<path d="M154.282 137.716L95.5845 168.641L97.7946 172.836L156.492 141.911L154.282 137.716Z" fill="#6ECBE7"/>
<path d="M90.3621 170.875L163.839 132.305L164.579 133.71L91.1218 172.411" fill="#6C82E6"/>
<path d="M161.698 229.952L137.067 242.929L147.566 262.857L172.197 249.879L161.698 229.952Z" fill="#6986DA"/>
<path d="M149.541 206.878L124.91 219.855L135.409 239.782L160.04 226.805L149.541 206.878Z" fill="#6986DA"/>
<path d="M163.976 132.608L86.2812 173.543L82.1365 165.676L87.7701 162.708L90.3949 167.69L154.557 133.791L151.97 128.884L159.832 124.742L163.976 132.608Z" fill="#69CBE5"/>
<path d="M136.97 183.016L112.338 195.993L122.837 215.921L147.469 202.943L136.97 183.016Z" fill="#6986DA"/>
<path d="M192.094 213.937L167.463 226.915L177.962 246.842L202.593 233.865L192.094 213.937Z" fill="#6986DA"/>
<path d="M179.937 190.863L155.306 203.84L165.805 223.768L190.436 210.79L179.937 190.863Z" fill="#6986DA"/>
<path d="M167.366 167.002L142.734 179.979L153.233 199.906L177.865 186.929L167.366 167.002Z" fill="#6986DA"/>
<path d="M161.698 229.952L138.177 242.344L148.675 262.272L172.197 249.879L161.698 229.952Z" fill="#B0F2FF"/>
<path d="M149.541 206.877L126.02 219.27L136.518 239.197L160.04 226.805L149.541 206.877Z" fill="#B0F2FF"/>
<path d="M136.97 183.016L113.448 195.409L123.947 215.336L147.469 202.943L136.97 183.016Z" fill="#B0F2FF"/>
<path d="M192.102 213.933L168.573 226.33L179.071 246.258L202.601 233.861L192.102 213.933Z" fill="#B0F2FF"/>
<path d="M179.945 190.859L156.416 203.256L166.914 223.183L190.444 210.787L179.945 190.859Z" fill="#B0F2FF"/>
<path d="M167.374 166.998L143.844 179.395L154.343 199.322L177.873 186.925L167.374 166.998Z" fill="#B0F2FF"/>
<path d="M130.386 187.993L117.283 194.896L126.263 211.94L139.366 205.037L130.386 187.993Z" fill="#6986DA"/>
<path d="M129.942 188.227L116.84 195.13L125.819 212.174L138.922 205.271L129.942 188.227Z" fill="white"/>
<path d="M209.081 232.167L236.489 217.727L240.824 218.422L218.077 230.407L209.081 232.167Z" fill="#6C82E6"/>
<path d="M91.4749 172.274L141.726 267.654" stroke="#D7F9FF" stroke-width="4" stroke-miterlimit="10"/>
<path d="M154.776 138.782L205.086 234.272" stroke="#D7F9FF" stroke-width="4" stroke-miterlimit="10"/>
<path d="M154.04 138.46L204.642 234.506" stroke="#6986DA" stroke-width="4" stroke-miterlimit="10"/>
<path d="M127.173 157.155L175.903 249.648" stroke="#6986DA" stroke-width="4" stroke-miterlimit="10"/>
<path d="M96.0063 169.036L146.609 265.081" stroke="#6986DA" stroke-width="4" stroke-miterlimit="10"/>
<path d="M156.166 142.092L97.9661 172.755" stroke="#6986DA" stroke-width="4" stroke-miterlimit="10"/>
<path d="M126.963 157.833L175.459 249.881" stroke="#D7F9FF" stroke-width="4" stroke-miterlimit="10"/>
<path d="M218.857 231.485L139.685 273.197" stroke="#D7F9FF" stroke-width="4" stroke-miterlimit="10"/>
<path d="M219.852 233.373L140.68 275.085" stroke="#D7F9FF" stroke-width="4" stroke-miterlimit="10"/>
<path d="M219.033 231.818L139.861 273.53" stroke="#6986DA" stroke-width="4" stroke-miterlimit="10"/>
<path d="M220.027 233.706L140.855 275.418" stroke="#6986DA" stroke-width="4" stroke-miterlimit="10"/>
<path d="M117.807 165.21L128.337 185.196" stroke="#D7F9FF" stroke-width="4" stroke-miterlimit="10"/>
<path d="M109.152 169.77L119.682 189.756" stroke="#D7F9FF" stroke-width="4" stroke-miterlimit="10"/>
<path d="M148.211 149.192L158.741 169.178" stroke="#D7F9FF" stroke-width="4" stroke-miterlimit="10"/>
<path d="M139.556 153.751L150.086 173.738" stroke="#D7F9FF" stroke-width="4" stroke-miterlimit="10"/>
<path d="M118.251 164.977L128.781 184.963" stroke="#6986DA" stroke-width="4" stroke-miterlimit="10"/>
<path d="M109.596 169.536L120.126 189.522" stroke="#6986DA" stroke-width="4" stroke-miterlimit="10"/>
<path d="M148.655 148.958L159.185 168.944" stroke="#6986DA" stroke-width="4" stroke-miterlimit="10"/>
<path d="M140 153.518L150.529 173.504" stroke="#6986DA" stroke-width="4" stroke-miterlimit="10"/>
</g>
<g opacity="0.4" clip-path="url(#clip2)">
<path d="M188.96 90.6204L162.092 95.5682L157.6 85.3415L179.42 68.903L188.96 90.6204Z" fill="url(#paint4_linear)"/>
<path d="M131.187 115.964L153.008 99.5255L148.516 89.2988L121.648 94.2466L131.187 115.964Z" fill="url(#paint5_linear)"/>
<path d="M184.301 107.15L117.863 136.333L122.153 146.101L188.591 116.918L184.301 107.15Z" fill="#6986DA"/>
<path d="M184.302 107.15L119.011 135.829L123.302 145.597L188.593 116.918L184.302 107.15Z" fill="#3C5AB9"/>
<path d="M146.17 133.448L129.13 140.933C128.368 141.267 127.481 140.921 127.146 140.159L125.497 136.404C125.162 135.642 125.508 134.755 126.269 134.42L143.309 126.935C144.07 126.601 144.958 126.947 145.292 127.709L146.942 131.464C147.276 132.226 146.931 133.114 146.17 133.448Z" fill="#ADEFFE"/>
<path d="M180.533 118.516L163.493 126C162.732 126.335 161.844 125.989 161.509 125.227L159.86 121.472C159.525 120.71 159.871 119.822 160.632 119.488L177.672 112.003C178.433 111.668 179.321 112.015 179.656 112.776L181.305 116.532C181.64 117.293 181.294 118.181 180.533 118.516Z" fill="#B0F2FF"/>
<path d="M157.494 124.427L149.266 128.041C148.917 128.195 148.51 128.036 148.357 127.687L147.601 125.965C147.447 125.616 147.606 125.209 147.955 125.056L156.183 121.442C156.532 121.289 156.938 121.447 157.092 121.797L157.848 123.518C158.001 123.867 157.842 124.275 157.494 124.427Z" fill="#B0EFFF"/>
<path d="M157.958 128.432L152.171 130.974C151.822 131.127 151.415 130.969 151.261 130.619L150.505 128.898C150.352 128.549 150.51 128.142 150.859 127.989L156.647 125.447C156.996 125.293 157.403 125.452 157.556 125.801L158.312 127.522C158.466 127.872 158.307 128.278 157.958 128.432Z" fill="#AFEDFF"/>
<path d="M192.073 118.95L122.11 149.682L165.972 249.539L235.935 218.808L192.073 118.95Z" fill="#6ECBE7"/>
<path d="M157.631 142.173L132.14 153.369L141.198 173.991L166.689 162.795L157.631 142.173Z" fill="#3C5AB9"/>
<path d="M136.788 163.951L162.278 152.754" stroke="#6ECBE7" stroke-width="4" stroke-miterlimit="10"/>
<path d="M189.086 128.356L163.596 139.552L172.654 160.175L198.145 148.978L189.086 128.356Z" fill="#3C5AB9"/>
<path d="M168.244 150.134L193.734 138.937" stroke="#6ECBE7" stroke-width="4" stroke-miterlimit="10"/>
<path d="M220.41 106.504L192.072 118.951L235.95 218.845L264.288 206.398L220.41 106.504Z" fill="#6C82E6"/>
<path d="M245.143 217.678L163.248 253.65L165.275 258.263L247.169 222.292L245.143 217.678Z" fill="#6ECBE7"/>
<path d="M268.6 207.374L245.143 217.678L247.169 222.291L270.626 211.988L268.6 207.374Z" fill="#6C82E6"/>
<path d="M159.351 96.7451L150.266 100.735L151.697 103.992L160.781 100.002L159.351 96.7451Z" fill="#6CCCE7"/>
<path d="M164.774 94.3628L159.351 96.7451L160.781 100.002L166.205 97.6193L164.774 94.3628Z" fill="#6E82E2"/>
<path d="M157.717 85.2904L147.683 89.6978L152.165 99.9015L162.199 95.4941L157.717 85.2904Z" fill="#AFF1FF"/>
<path d="M175.8 104.734L121.429 128.616L120.357 126.174L144.902 106.957L174.727 102.292L175.8 104.734Z" fill="#6ACCE9"/>
<path d="M175.8 104.734L203.981 92.3841L202.921 89.9711L197.866 92.1285L174.727 102.292L175.8 104.734Z" fill="#6887E1"/>
<path d="M202.921 89.9712L174.787 102.329L144.902 106.957L172.493 94.8571" fill="#6E82E6"/>
<path d="M155.762 86.1488L146.61 90.202L145.804 88.3681L149.627 84.1829L155.005 84.4252L155.762 86.1488Z" fill="#6CCCE7"/>
<path d="M155.703 86.1752L159.092 84.6862L158.335 82.9626L154.94 84.439L155.703 86.1752Z" fill="#6A86D6"/>
<path d="M158.335 82.9623L154.919 84.4477L149.719 84.1879C149.696 84.1868 149.69 84.1555 149.711 84.1459L152.882 82.7533" fill="#6E84DC"/>
<path d="M235.934 218.809L166.242 249.42L163.296 253.581C163.283 253.6 163.303 253.624 163.323 253.615L245.142 217.677L235.934 218.809Z" fill="#6ACDE7"/>
<path d="M202.375 122.519L199.662 123.71L204.073 133.751L206.785 132.559L202.375 122.519Z" fill="#3C5AB9"/>
<path d="M207.261 133.644L204.549 134.835L208.959 144.876L211.672 143.685L207.261 133.644Z" fill="#3C5AB9"/>
<path d="M205.629 121.089L202.917 122.281L207.327 132.321L210.039 131.13L205.629 121.089Z" fill="#3C5AB9"/>
<path d="M210.516 132.214L207.803 133.406L212.214 143.446L214.926 142.255L210.516 132.214Z" fill="#3C5AB9"/>
<path d="M208.883 119.66L206.171 120.851L210.581 130.892L213.294 129.7L208.883 119.66Z" fill="#3C5AB9"/>
<path d="M213.77 130.785L211.058 131.977L215.468 142.017L218.18 140.826L213.77 130.785Z" fill="#3C5AB9"/>
<path d="M213.764 117.516L211.052 118.708L215.462 128.748L218.174 127.557L213.764 117.516Z" fill="#3C5AB9"/>
<path d="M218.651 128.641L215.938 129.833L220.349 139.873L223.061 138.682L218.651 128.641Z" fill="#3C5AB9"/>
<path d="M217.018 116.087L214.306 117.278L218.716 127.319L221.428 126.128L217.018 116.087Z" fill="#3C5AB9"/>
<path d="M221.905 127.212L219.192 128.403L223.603 138.444L226.315 137.253L221.905 127.212Z" fill="#3C5AB9"/>
<path d="M220.272 114.657L217.56 115.849L221.97 125.889L224.683 124.698L220.272 114.657Z" fill="#3C5AB9"/>
<path d="M225.159 125.782L222.447 126.974L226.857 137.014L229.569 135.823L225.159 125.782Z" fill="#3C5AB9"/>
<path d="M191.208 109.618L186.327 111.763L184.301 107.15L117.863 136.333L119.889 140.945L117.313 142.077L114.214 135.021L188.109 102.563L191.208 109.618Z" fill="#6CCBE9"/>
<path d="M179.867 102.947L116.954 130.582L118.146 133.296L181.059 105.661L179.867 102.947Z" fill="#6CCBE9"/>
<path d="M214.142 91.1289L188.109 102.563L191.208 109.619L217.241 98.1841L214.142 91.1289Z" fill="#6C82E6"/>
<path d="M219.953 96.9924L194.463 108.189L198.039 116.33L223.529 105.134L219.953 96.9924Z" fill="#6C82E6"/>
<path d="M208.341 90.4403L179.867 102.947L181.059 105.661L209.533 93.1544L208.341 90.4403Z" fill="#6C82E6"/>
<path d="M127.262 147.418L122.11 149.682L165.972 249.539L171.124 247.276L127.262 147.418Z" fill="#6ECBE7"/>
<path d="M192.072 118.951L188.005 120.738L231.867 220.595L235.934 218.809L192.072 118.951Z" fill="#6ACCE9"/>
<path d="M188.006 120.737L127.262 147.418L129.169 151.76L189.913 125.078L188.006 120.737Z" fill="#6ECBE7"/>
<path d="M121.894 149.276L197.923 116.018L198.562 117.472L122.543 150.862" fill="#6C82E6"/>
<path d="M188.858 213.266L163.368 224.463L172.426 245.085L197.917 233.889L188.858 213.266Z" fill="#6986DA"/>
<path d="M178.37 189.387L152.879 200.584L161.937 221.206L187.428 210.01L178.37 189.387Z" fill="#6986DA"/>
<path d="M198.039 116.33L117.635 151.647L114.059 143.506L119.889 140.946L122.153 146.101L188.559 116.841L186.327 111.763L194.463 108.189L198.039 116.33Z" fill="#69CBE5"/>
<path d="M167.523 164.694L142.033 175.891L151.091 196.513L176.581 185.316L167.523 164.694Z" fill="#6986DA"/>
<path d="M220.314 199.449L194.824 210.646L203.882 231.268L229.372 220.072L220.314 199.449Z" fill="#6986DA"/>
<path d="M209.825 175.571L184.335 186.767L193.393 207.389L218.884 196.193L209.825 175.571Z" fill="#6986DA"/>
<path d="M198.979 150.877L173.489 162.074L182.547 182.696L208.037 171.5L198.979 150.877Z" fill="#6986DA"/>
<path d="M188.858 213.266L164.516 223.958L173.574 244.581L197.916 233.889L188.858 213.266Z" fill="#B0F2FF"/>
<path d="M178.37 189.387L154.028 200.08L163.086 220.702L187.428 210.01L178.37 189.387Z" fill="#B0F2FF"/>
<path d="M167.523 164.694L143.181 175.386L152.239 196.009L176.581 185.316L167.523 164.694Z" fill="#B0F2FF"/>
<path d="M220.322 199.446L195.972 210.142L205.03 230.764L229.381 220.068L220.322 199.446Z" fill="#B0F2FF"/>
<path d="M209.834 175.567L185.483 186.263L194.542 206.885L218.892 196.189L209.834 175.567Z" fill="#B0F2FF"/>
<path d="M198.987 150.874L174.637 161.569L183.695 182.192L208.045 171.496L198.987 150.874Z" fill="#B0F2FF"/>
<path d="M160.602 169.191L147.043 175.147L154.79 192.785L168.35 186.829L160.602 169.191Z" fill="#6986DA"/>
<path d="M160.143 169.393L146.584 175.349L154.331 192.987L167.891 187.031L160.143 169.393Z" fill="white"/>
<path d="M235.964 218.839L264.327 206.381L268.603 207.382L245.062 217.722L235.964 218.839Z" fill="#6C82E6"/>
<path d="M122.905 150.75L166.261 249.455" stroke="#D7F9FF" stroke-width="4" stroke-miterlimit="10"/>
<path d="M188.424 121.835L231.83 220.655" stroke="#D7F9FF" stroke-width="4" stroke-miterlimit="10"/>
<path d="M187.712 121.462L231.371 220.856" stroke="#6986DA" stroke-width="4" stroke-miterlimit="10"/>
<path d="M159.586 138.203L201.629 233.92" stroke="#6986DA" stroke-width="4" stroke-miterlimit="10"/>
<path d="M127.655 147.842L171.314 247.236" stroke="#6986DA" stroke-width="4" stroke-miterlimit="10"/>
<path d="M189.575 125.236L129.346 151.691" stroke="#6986DA" stroke-width="4" stroke-miterlimit="10"/>
<path d="M159.328 138.864L201.17 234.122" stroke="#D7F9FF" stroke-width="4" stroke-miterlimit="10"/>
<path d="M245.764 218.852L163.832 254.841" stroke="#D7F9FF" stroke-width="4" stroke-miterlimit="10"/>
<path d="M246.622 220.805L164.69 256.794" stroke="#D7F9FF" stroke-width="4" stroke-miterlimit="10"/>
<path d="M245.916 219.197L163.983 255.186" stroke="#6986DA" stroke-width="4" stroke-miterlimit="10"/>
<path d="M246.774 221.15L164.841 257.139" stroke="#6986DA" stroke-width="4" stroke-miterlimit="10"/>
<path d="M149.672 145.573L158.757 166.256" stroke="#D7F9FF" stroke-width="4" stroke-miterlimit="10"/>
<path d="M140.715 149.507L149.8 170.191" stroke="#D7F9FF" stroke-width="4" stroke-miterlimit="10"/>
<path d="M181.136 131.753L190.221 152.436" stroke="#D7F9FF" stroke-width="4" stroke-miterlimit="10"/>
<path d="M172.179 135.687L181.264 156.37" stroke="#D7F9FF" stroke-width="4" stroke-miterlimit="10"/>
<path d="M150.132 145.372L159.217 166.055" stroke="#6986DA" stroke-width="4" stroke-miterlimit="10"/>
<path d="M141.175 149.306L150.26 169.989" stroke="#6986DA" stroke-width="4" stroke-miterlimit="10"/>
<path d="M181.595 131.551L190.68 152.234" stroke="#6986DA" stroke-width="4" stroke-miterlimit="10"/>
<path d="M172.639 135.485L181.724 156.169" stroke="#6986DA" stroke-width="4" stroke-miterlimit="10"/>
</g>
<g clip-path="url(#clip3)">
<path d="M227.676 74.9671L200.808 79.9149L196.316 69.6882L218.137 53.2497L227.676 74.9671Z" fill="url(#paint6_linear)"/>
<path d="M169.903 100.311L191.724 83.8721L187.232 73.6454L160.364 78.5933L169.903 100.311Z" fill="url(#paint7_linear)"/>
<path d="M223.017 91.497L156.579 120.68L160.87 130.448L227.308 101.265L223.017 91.497Z" fill="#6986DA"/>
<path d="M223.018 91.4965L157.727 120.175L162.018 129.944L227.309 101.265L223.018 91.4965Z" fill="#3C5AB9"/>
<path d="M184.886 117.795L167.846 125.28C167.085 125.614 166.197 125.268 165.862 124.506L164.213 120.751C163.878 119.989 164.224 119.101 164.985 118.767L182.025 111.282C182.786 110.948 183.674 111.294 184.009 112.056L185.658 115.811C185.993 116.573 185.647 117.461 184.886 117.795Z" fill="#ADEFFE"/>
<path d="M219.249 102.862L202.209 110.347C201.448 110.682 200.56 110.335 200.226 109.573L198.576 105.818C198.241 105.057 198.587 104.169 199.348 103.834L216.388 96.3495C217.15 96.0151 218.037 96.3613 218.372 97.1231L220.021 100.878C220.356 101.64 220.01 102.528 219.249 102.862Z" fill="#B0F2FF"/>
<path d="M196.21 108.774L187.982 112.388C187.633 112.541 187.227 112.383 187.073 112.033L186.317 110.312C186.164 109.963 186.322 109.556 186.671 109.403L194.899 105.789C195.248 105.635 195.655 105.794 195.808 106.143L196.564 107.865C196.718 108.214 196.558 108.621 196.21 108.774Z" fill="#B0EFFF"/>
<path d="M196.674 112.778L190.887 115.321C190.538 115.474 190.131 115.315 189.978 114.966L189.222 113.245C189.068 112.895 189.227 112.489 189.576 112.335L195.363 109.793C195.712 109.64 196.119 109.798 196.272 110.148L197.028 111.869C197.182 112.218 197.024 112.625 196.674 112.778Z" fill="#AFEDFF"/>
<path d="M230.79 103.297L160.826 134.028L204.688 233.886L274.652 203.155L230.79 103.297Z" fill="#6ECBE7"/>
<path d="M196.347 126.519L170.856 137.716L179.915 158.338L205.405 147.142L196.347 126.519Z" fill="#3C5AB9"/>
<path d="M175.504 148.297L200.995 137.101" stroke="#6ECBE7" stroke-width="4" stroke-miterlimit="10"/>
<path d="M227.803 112.702L202.312 123.899L211.371 144.521L236.861 133.325L227.803 112.702Z" fill="#3C5AB9"/>
<path d="M206.96 134.48L232.451 123.284" stroke="#6ECBE7" stroke-width="4" stroke-miterlimit="10"/>
<path d="M259.127 90.8504L230.788 103.298L274.666 203.192L303.005 190.745L259.127 90.8504Z" fill="#6C82E6"/>
<path d="M283.859 202.025L201.965 237.997L203.991 242.61L285.886 206.638L283.859 202.025Z" fill="#6ECBE7"/>
<path d="M307.316 191.721L283.859 202.024L285.886 206.638L309.342 196.335L307.316 191.721Z" fill="#6C82E6"/>
<path d="M198.067 81.0918L188.983 85.082L190.413 88.3385L199.497 84.3482L198.067 81.0918Z" fill="#6CCCE7"/>
<path d="M203.491 78.7095L198.067 81.0918L199.498 84.3482L204.921 81.966L203.491 78.7095Z" fill="#6E82E2"/>
<path d="M196.433 69.637L186.399 74.0444L190.881 84.2482L200.915 79.8408L196.433 69.637Z" fill="#AFF1FF"/>
<path d="M214.516 89.0808L160.145 112.963L159.073 110.521L183.618 91.3039L213.443 86.639L214.516 89.0808Z" fill="#6ACCE9"/>
<path d="M214.516 89.0805L242.697 76.7308L241.637 74.3177L236.582 76.4751L213.444 86.6387L214.516 89.0805Z" fill="#6887E1"/>
<path d="M241.637 74.3179L213.504 86.6756L183.618 91.3037L211.209 79.2038" fill="#6E82E6"/>
<path d="M194.478 70.4955L185.326 74.5487L184.52 72.7148L188.344 68.5296L193.721 68.7719L194.478 70.4955Z" fill="#6CCCE7"/>
<path d="M194.419 70.5216L197.809 69.0327L197.052 67.3091L193.656 68.7854L194.419 70.5216Z" fill="#6A86D6"/>
<path d="M197.052 67.309L193.636 68.7944L188.435 68.5346C188.413 68.5334 188.406 68.5022 188.428 68.4926L191.598 67.1" fill="#6E84DC"/>
<path d="M274.65 203.155L204.959 233.767L202.012 237.927C201.999 237.947 202.019 237.971 202.04 237.962L283.859 202.023L274.65 203.155Z" fill="#6ACDE7"/>
<path d="M241.091 106.865L238.379 108.057L242.789 118.097L245.501 116.906L241.091 106.865Z" fill="#3C5AB9"/>
<path d="M245.978 117.991L243.265 119.182L247.676 129.223L250.388 128.031L245.978 117.991Z" fill="#3C5AB9"/>
<path d="M244.345 105.436L241.633 106.627L246.043 116.668L248.756 115.477L244.345 105.436Z" fill="#3C5AB9"/>
<path d="M249.232 116.561L246.52 117.752L250.93 127.793L253.642 126.602L249.232 116.561Z" fill="#3C5AB9"/>
<path d="M247.6 104.006L244.887 105.198L249.298 115.238L252.01 114.047L247.6 104.006Z" fill="#3C5AB9"/>
<path d="M252.486 115.132L249.774 116.323L254.184 126.364L256.897 125.172L252.486 115.132Z" fill="#3C5AB9"/>
<path d="M252.48 101.863L249.768 103.054L254.178 113.095L256.89 111.903L252.48 101.863Z" fill="#3C5AB9"/>
<path d="M257.367 112.988L254.655 114.179L259.065 124.22L261.777 123.028L257.367 112.988Z" fill="#3C5AB9"/>
<path d="M255.734 100.434L253.022 101.625L257.432 111.666L260.145 110.474L255.734 100.434Z" fill="#3C5AB9"/>
<path d="M260.621 111.559L257.909 112.75L262.319 122.791L265.031 121.599L260.621 111.559Z" fill="#3C5AB9"/>
<path d="M258.989 99.0039L256.276 100.195L260.687 110.236L263.399 109.044L258.989 99.0039Z" fill="#3C5AB9"/>
<path d="M263.875 110.129L261.163 111.32L265.573 121.361L268.286 120.169L263.875 110.129Z" fill="#3C5AB9"/>
<path d="M229.925 93.9652L225.043 96.1094L223.017 91.497L156.579 120.68L158.605 125.292L156.029 126.423L152.93 119.368L226.826 86.9099L229.925 93.9652Z" fill="#6CCBE9"/>
<path d="M218.583 87.294L155.67 114.928L156.863 117.642L219.776 90.0081L218.583 87.294Z" fill="#6CCBE9"/>
<path d="M252.858 75.4755L226.826 86.9102L229.925 93.9654L255.957 82.5308L252.858 75.4755Z" fill="#6C82E6"/>
<path d="M258.669 81.3391L233.179 92.5356L236.755 100.677L262.245 89.4803L258.669 81.3391Z" fill="#6C82E6"/>
<path d="M247.057 74.787L218.583 87.2939L219.775 90.008L248.249 77.5011L247.057 74.787Z" fill="#6C82E6"/>
<path d="M165.978 131.765L160.826 134.028L204.688 233.886L209.84 231.623L165.978 131.765Z" fill="#6ECBE7"/>
<path d="M230.788 103.298L226.721 105.084L270.583 204.942L274.65 203.155L230.788 103.298Z" fill="#6ACCE9"/>
<path d="M226.722 105.084L165.979 131.765L167.885 136.106L228.629 109.425L226.722 105.084Z" fill="#6ECBE7"/>
<path d="M160.611 133.623L236.64 100.365L237.278 101.818L161.259 135.209" fill="#6C82E6"/>
<path d="M227.575 197.613L202.084 208.81L211.142 229.432L236.633 218.235L227.575 197.613Z" fill="#6986DA"/>
<path d="M217.086 173.734L191.595 184.931L200.654 205.553L226.144 194.356L217.086 173.734Z" fill="#6986DA"/>
<path d="M236.755 100.677L156.351 135.994L152.775 127.853L158.605 125.292L160.87 130.448L227.275 101.188L225.043 96.1095L233.179 92.5359L236.755 100.677Z" fill="#69CBE5"/>
<path d="M206.239 149.041L180.749 160.237L189.807 180.86L215.298 169.663L206.239 149.041Z" fill="#6986DA"/>
<path d="M259.03 183.796L233.54 194.993L242.598 215.615L268.089 204.418L259.03 183.796Z" fill="#6986DA"/>
<path d="M248.542 159.917L223.051 171.114L232.11 191.736L257.6 180.54L248.542 159.917Z" fill="#6986DA"/>
<path d="M237.695 135.224L212.205 146.42L221.263 167.043L246.753 155.846L237.695 135.224Z" fill="#6986DA"/>
<path d="M227.574 197.613L203.232 208.305L212.291 228.928L236.633 218.235L227.574 197.613Z" fill="#B0F2FF"/>
<path d="M217.086 173.734L192.744 184.426L201.802 205.049L226.144 194.356L217.086 173.734Z" fill="#B0F2FF"/>
<path d="M206.239 149.041L181.897 159.733L190.955 180.355L215.298 169.663L206.239 149.041Z" fill="#B0F2FF"/>
<path d="M259.039 183.793L234.688 194.488L243.747 215.111L268.097 204.415L259.039 183.793Z" fill="#B0F2FF"/>
<path d="M248.55 159.914L224.2 170.609L233.258 191.232L257.608 180.536L248.55 159.914Z" fill="#B0F2FF"/>
<path d="M237.703 135.22L213.353 145.916L222.412 166.538L246.762 155.843L237.703 135.22Z" fill="#B0F2FF"/>
<path d="M199.319 153.538L185.759 159.494L193.507 177.132L207.066 171.176L199.319 153.538Z" fill="#6986DA"/>
<path d="M198.859 153.739L185.3 159.695L193.048 177.334L206.607 171.378L198.859 153.739Z" fill="white"/>
<path d="M274.68 203.186L303.044 190.728L307.319 191.728L283.778 202.068L274.68 203.186Z" fill="#6C82E6"/>
<path d="M161.622 135.097L204.977 233.802" stroke="#D7F9FF" stroke-width="4" stroke-miterlimit="10"/>
<path d="M227.14 106.182L270.546 205.002" stroke="#D7F9FF" stroke-width="4" stroke-miterlimit="10"/>
<path d="M226.428 105.809L270.087 205.203" stroke="#6986DA" stroke-width="4" stroke-miterlimit="10"/>
<path d="M198.302 122.55L240.345 218.267" stroke="#6986DA" stroke-width="4" stroke-miterlimit="10"/>
<path d="M166.371 132.188L210.03 231.583" stroke="#6986DA" stroke-width="4" stroke-miterlimit="10"/>
<path d="M228.291 109.583L168.062 136.038" stroke="#6986DA" stroke-width="4" stroke-miterlimit="10"/>
<path d="M198.044 123.211L239.886 218.469" stroke="#D7F9FF" stroke-width="4" stroke-miterlimit="10"/>
<path d="M284.48 203.199L202.548 239.188" stroke="#D7F9FF" stroke-width="4" stroke-miterlimit="10"/>
<path d="M285.339 205.152L203.406 241.141" stroke="#D7F9FF" stroke-width="4" stroke-miterlimit="10"/>
<path d="M284.632 203.544L202.699 239.532" stroke="#6986DA" stroke-width="4" stroke-miterlimit="10"/>
<path d="M285.49 205.497L203.557 241.485" stroke="#6986DA" stroke-width="4" stroke-miterlimit="10"/>
<path d="M188.389 129.92L197.474 150.603" stroke="#D7F9FF" stroke-width="4" stroke-miterlimit="10"/>
<path d="M179.432 133.854L188.517 154.537" stroke="#D7F9FF" stroke-width="4" stroke-miterlimit="10"/>
<path d="M219.853 116.1L228.938 136.783" stroke="#D7F9FF" stroke-width="4" stroke-miterlimit="10"/>
<path d="M210.896 120.034L219.981 140.717" stroke="#D7F9FF" stroke-width="4" stroke-miterlimit="10"/>
<path d="M188.848 129.718L197.933 150.401" stroke="#6986DA" stroke-width="4" stroke-miterlimit="10"/>
<path d="M179.891 133.652L188.976 154.336" stroke="#6986DA" stroke-width="4" stroke-miterlimit="10"/>
<path d="M220.312 115.897L229.397 136.581" stroke="#6986DA" stroke-width="4" stroke-miterlimit="10"/>
<path d="M211.355 119.832L220.44 140.515" stroke="#6986DA" stroke-width="4" stroke-miterlimit="10"/>
</g>
<defs>
<linearGradient id="paint0_linear" x1="76.5796" y1="135.47" x2="98.897" y2="121.016" gradientUnits="userSpaceOnUse">
<stop stop-color="#FFF297"/>
<stop offset="1" stop-color="white" stop-opacity="0"/>
</linearGradient>
<linearGradient id="paint1_linear" x1="68.2469" y1="140.831" x2="45.9295" y2="155.286" gradientUnits="userSpaceOnUse">
<stop stop-color="#FFF297"/>
<stop offset="1" stop-color="white" stop-opacity="0"/>
</linearGradient>
<linearGradient id="paint2_linear" x1="124.043" y1="109.509" x2="147.567" y2="97.1151" gradientUnits="userSpaceOnUse">
<stop stop-color="#FFF297"/>
<stop offset="1" stop-color="white" stop-opacity="0"/>
</linearGradient>
<linearGradient id="paint3_linear" x1="115.263" y1="114.101" x2="91.739" y2="126.495" gradientUnits="userSpaceOnUse">
<stop stop-color="#FFF297"/>
<stop offset="1" stop-color="white" stop-opacity="0"/>
</linearGradient>
<linearGradient id="paint4_linear" x1="159.846" y1="90.4549" x2="184.19" y2="79.7617" gradientUnits="userSpaceOnUse">
<stop stop-color="#FFF297"/>
<stop offset="1" stop-color="white" stop-opacity="0"/>
</linearGradient>
<linearGradient id="paint5_linear" x1="150.762" y1="94.4122" x2="126.417" y2="105.105" gradientUnits="userSpaceOnUse">
<stop stop-color="#FFF297"/>
<stop offset="1" stop-color="white" stop-opacity="0"/>
</linearGradient>
<linearGradient id="paint6_linear" x1="198.562" y1="74.8016" x2="222.906" y2="64.1084" gradientUnits="userSpaceOnUse">
<stop stop-color="#FFF297"/>
<stop offset="1" stop-color="white" stop-opacity="0"/>
</linearGradient>
<linearGradient id="paint7_linear" x1="189.478" y1="78.7589" x2="165.134" y2="89.4521" gradientUnits="userSpaceOnUse">
<stop stop-color="#FFF297"/>
<stop offset="1" stop-color="white" stop-opacity="0"/>
</linearGradient>
<clipPath id="clip0">
<rect width="119.276" height="171.814" fill="white" transform="translate(13.9587 158.757) rotate(-32.9298)"/>
</clipPath>
<clipPath id="clip1">
<rect width="119.276" height="171.814" fill="white" transform="translate(59.5857 127.084) rotate(-27.7829)"/>
</clipPath>
<clipPath id="clip2">
<rect width="119.276" height="171.814" fill="white" transform="translate(94.3035 103.412) rotate(-23.7133)"/>
</clipPath>
<clipPath id="clip3">
<rect width="119.276" height="171.814" fill="white" transform="translate(133.02 87.7583) rotate(-23.7133)"/>
</clipPath>
</defs>
</svg>
